#tb 0: 1001/30000
#media_type 0: video
#codec_id 0: rawvideo
#dimensions 0: 128x128
#sar 0: 4/3
0,          0,          0,        1,    24576, 0xcdd6878a
0,          1,          1,        1,    24576, 0x55bfa705
0,          2,          2,        1,    24576, 0x8fe7a8d2
0,          3,          3,        1,    24576, 0x3b16b9ac
0,          4,          4,        1,    24576, 0x59edcfa3
